<?xml version="1.0" encoding="UTF-8" standalone="no"?>
<!-- Created with Inkscape (http://www.inkscape.org/) -->

<svg
   width="31.819016mm"
   height="20.843531mm"
   viewBox="0 0 31.819016 20.843531"
   version="1.1"
   id="svg1"
   xml:space="preserve"
   inkscape:version="1.3.2 (091e20e, 2023-11-25, custom)"
   sodipodi:docname="ico.svg"
   xmlns:inkscape="http://www.inkscape.org/namespaces/inkscape"
   xmlns:sodipodi="http://sodipodi.sourceforge.net/DTD/sodipodi-0.dtd"
   xmlns="http://www.w3.org/2000/svg"
   xmlns:svg="http://www.w3.org/2000/svg"><sodipodi:namedview
     id="namedview1"
     pagecolor="#505050"
     bordercolor="#eeeeee"
     borderopacity="1"
     inkscape:showpageshadow="0"
     inkscape:pageopacity="0"
     inkscape:pagecheckerboard="0"
     inkscape:deskcolor="#505050"
     inkscape:document-units="mm"
     inkscape:zoom="0.72248176"
     inkscape:cx="255.36977"
     inkscape:cy="-150.1768"
     inkscape:window-width="1920"
     inkscape:window-height="1046"
     inkscape:window-x="-11"
     inkscape:window-y="-11"
     inkscape:window-maximized="1"
     inkscape:current-layer="layer1" /><defs
     id="defs1" /><g
     inkscape:label="Layer 1"
     inkscape:groupmode="layer"
     id="layer1"
     transform="translate(-37.17676,-188.24397)"><path
       style="fill:#a3a3a3;fill-opacity:0.85336047"
       d="m 37.712915,209.00696 c -0.08691,-0.0386 -0.24077,-0.24674 -0.341901,-0.46256 -0.250686,-0.53498 -0.262094,-3.78713 -0.01467,-4.18287 0.09797,-0.1567 0.19607,-0.80473 0.233018,-1.53921 0.06549,-1.30188 0.200954,-1.68128 0.600288,-1.68128 0.356743,0 0.42542,0.26366 0.384183,1.47492 l -0.03854,1.13193 h 8.623144 c 7.383929,0 8.845948,-0.0332 10.173531,-0.23087 0.852713,-0.12698 1.830125,-0.23502 2.172026,-0.24011 0.605792,-0.009 0.62164,9.7e-4 0.62164,0.39094 0,0.32359 -0.07138,0.42565 -0.372984,0.53329 -0.205141,0.0732 -0.389001,0.14749 -0.408578,0.16505 -0.04047,0.0363 0.199023,2.44864 0.288499,2.90597 0.06867,0.35098 0.104274,0.34834 2.544473,-0.18883 1.952114,-0.42973 3.639147,-1.01992 4.87987,-1.70717 0.96294,-0.53338 0.963541,-0.53406 0.963541,-1.08781 0,-0.81765 -0.647721,-2.04969 -1.077584,-2.04969 -0.09017,0 -1.045513,0.28095 -2.122984,0.62435 -2.358416,0.75163 -3.020287,0.86658 -3.247807,0.56404 -0.289983,-0.38559 -0.05793,-0.72468 0.638963,-0.93371 l 0.649805,-0.1949 -0.559476,-0.36258 c -0.6259,-0.40563 -1.830672,-0.87886 -2.569229,-1.00919 -0.479242,-0.0846 -0.4937,-0.0744 -0.886062,0.62212 -0.342938,0.6088 -0.446815,0.70201 -0.740774,0.66468 -0.270742,-0.0344 -0.350253,-0.12379 -0.382019,-0.42959 -0.02206,-0.2124 0.0502,-0.53828 0.160577,-0.72419 0.253266,-0.42656 0.181986,-0.55012 -0.385068,-0.66752 -0.414924,-0.0859 -0.498937,-0.0451 -0.979643,0.47551 -0.414059,0.44845 -0.601931,0.55987 -0.884053,0.52432 -0.527131,-0.0665 -0.550669,-0.61073 -0.04933,-1.14077 l 0.382094,-0.40398 -0.527485,-0.29697 -0.527485,-0.29697 -0.571991,0.53225 c -0.63338,0.58938 -1.038184,0.67357 -1.239792,0.25785 -0.170132,-0.35081 -0.0085,-0.70017 0.513953,-1.11069 l 0.390131,-0.30657 -0.407256,-0.3668 -0.407256,-0.36681 -0.616755,0.45803 c -0.670678,0.49807 -0.837148,0.54396 -1.064215,0.29338 -0.303004,-0.33438 -0.16681,-0.77902 0.355442,-1.16042 l 0.504635,-0.36853 -0.364121,-0.40183 -0.364121,-0.40183 -0.540019,0.4317 c -0.70155,0.56083 -1.154669,0.53289 -1.208328,-0.0745 -0.03277,-0.37091 0.03317,-0.4758 0.517808,-0.8237 l 0.555356,-0.39866 -0.349016,-0.43107 -0.349016,-0.43106 -0.541776,0.39665 c -0.297976,0.21816 -0.628494,0.39692 -0.734483,0.39725 -0.254395,7.7e-4 -0.491096,-0.27081 -0.491096,-0.56347 0,-0.22008 0.510413,-0.78606 0.958383,-1.06272 0.177385,-0.10955 0.168282,-0.17115 -0.08281,-0.56029 -0.196487,-0.30452 -0.343866,-0.40947 -0.485593,-0.3458 -1.165234,0.52342 -1.252711,0.54197 -1.462756,0.31018 -0.347964,-0.384 -0.129919,-0.87498 0.507971,-1.14382 l 0.554613,-0.23375 -0.25339,-0.54812 c -0.248755,-0.53809 -0.262875,-0.5464 -0.771952,-0.45452 -2.025381,0.36556 -4.27738,0.63852 -5.895744,0.71461 -1.0428,0.049 -1.896,0.11972 -1.896,0.15709 0,0.0374 0.09073,0.56207 0.201617,1.16601 0.128018,0.69722 0.179051,1.45349 0.1398,2.07173 -0.06583,1.03686 -0.889043,4.41583 -1.151519,4.72654 -0.180534,0.2137 -0.625871,0.10463 -0.723908,-0.17731 -0.07135,-0.20519 0.142606,-1.20948 0.609807,-2.86233 0.382074,-1.3517 0.391525,-2.56672 0.03335,-4.28745 -0.260657,-1.25224 -0.26202,-1.30211 -0.04289,-1.56931 0.204112,-0.2489 0.38122,-0.27598 1.805073,-0.27598 0.868316,0 1.921961,-0.0396 2.341433,-0.088 0.73516,-0.0848 0.773776,-0.10887 1.070273,-0.6672 0.467494,-0.88032 1.107385,-1.44007 1.646255,-1.44007 0.383784,0 0.538377,0.10583 1.047791,0.71732 0.528117,0.63393 0.647744,0.71254 1.029109,0.67629 0.601411,-0.0572 0.891766,0.15493 1.390992,1.01616 0.27496,0.47434 0.518449,0.74589 0.668823,0.74589 0.248955,0 0.450366,0.44498 0.312686,0.69082 -0.127968,0.2285 0.296392,0.8261 0.695701,0.97971 0.274282,0.10552 0.363777,0.22628 0.363777,0.49088 0,0.43625 0.558869,1.26865 0.851757,1.26865 0.293578,0 0.51585,0.2668 0.51585,0.61919 0,0.39678 0.602818,0.99625 1.056787,1.05093 0.292265,0.0352 0.380875,0.11946 0.409449,0.38934 0.04219,0.39852 0.70431,0.959 1.132901,0.959 0.170713,0 0.307463,0.10035 0.343398,0.252 0.07393,0.31197 1.03973,0.84562 1.530417,0.84562 0.199914,0 0.408221,0.0873 0.462904,0.19389 0.102828,0.20053 1.384242,0.52239 1.571445,0.39471 0.05818,-0.0397 0.226335,-0.008 0.37367,0.0711 0.147336,0.0788 0.771411,0.30849 1.386834,0.51038 0.971542,0.31873 1.323686,0.36499 2.67305,0.35115 1.296825,-0.0133 1.667299,0.0314 2.237902,0.26994 0.376092,0.15723 0.907594,0.33195 1.181115,0.38826 0.703572,0.14486 1.011431,0.36065 1.434898,1.00577 0.62062,0.94546 0.896333,2.32495 0.605478,3.02941 -0.437095,1.05866 -4.130851,2.54296 -8.090096,3.25092 -3.577372,0.63968 -4.515118,0.685 -13.967071,0.67512 -4.923385,-0.005 -9.022721,-0.0409 -9.109635,-0.0795 z m 18.558555,-1.00513 c 0.683803,-0.0712 1.512069,-0.16848 1.840591,-0.21616 l 0.597311,-0.0867 -0.03784,-0.50061 c -0.03076,-0.40698 -0.08434,-0.49528 -0.286492,-0.47211 -1.5826,0.18137 -7.288565,0.32099 -12.184134,0.29813 l -6.092067,-0.0284 -0.03823,0.57122 -0.03823,0.57122 7.497905,-0.004 c 4.123847,-0.002 8.05738,-0.0618 8.741183,-0.133 z m 1.715956,-2.26942 c 0.46545,-0.0939 0.472103,-0.10404 0.435147,-0.66264 -0.02064,-0.312 -0.09611,-0.55601 -0.167712,-0.54225 -1.46464,0.2815 -4.161746,0.3487 -11.687466,0.29119 -9.039151,-0.0691 -8.509962,-0.10842 -8.509962,0.63256 0,0.16991 0.04171,0.35495 0.09269,0.41121 0.114833,0.12672 19.184275,0.002 19.837303,-0.13007 z m 7.173489,-4.05731 c 0.15038,-0.0429 -0.727681,-0.22872 -1.150033,-0.24343 -0.526688,-0.0183 -0.547907,0.0126 -0.261817,0.3813 0.189726,0.24453 0.245556,0.24967 0.777049,0.0717 0.31495,-0.10549 0.60061,-0.19978 0.634801,-0.20952 z m -18.55915,0.81951 c -0.483322,-0.29849 -0.06354,-1.21728 0.455701,-0.9974 0.219294,0.0929 0.377295,0.53628 0.263496,0.73948 -0.14968,0.26727 -0.500401,0.39304 -0.719197,0.25792 z m 1.864919,0 c -0.301877,-0.18643 -0.272001,-0.76107 0.04944,-0.95091 0.217358,-0.12837 0.307956,-0.10708 0.514586,0.12095 0.138261,0.15258 0.218291,0.37019 0.178367,0.485 -0.111624,0.32102 -0.493699,0.49855 -0.742393,0.34496 z m -5.080206,-2.5407 c -0.180331,-0.0346 -0.627555,-0.26056 -0.993831,-0.5021 -1.112411,-0.73357 -1.754127,-2.24889 -1.541244,-3.63942 0.265362,-1.73331 2.347223,-3.58593 2.528262,-2.24986 0.02768,0.20426 -0.115439,0.39935 -0.5161,0.70356 -0.74125,0.56281 -1.127957,1.43125 -1.047711,2.35288 0.122882,1.41128 1.213671,2.42776 2.463065,2.29528 2.182356,-0.23141 2.855707,-3.26362 1.032198,-4.64815 -0.454208,-0.34486 -0.547467,-0.48692 -0.516099,-0.78617 0.05554,-0.52986 0.443991,-0.52791 1.155289,0.006 1.070046,0.80287 1.643381,2.43999 1.319106,3.76664 -0.448169,1.83351 -2.168734,3.0306 -3.882935,2.70156 z m -0.351405,-2.10074 c -0.162578,-0.17942 -0.246675,-0.43082 -0.229127,-0.68496 0.01548,-0.22425 -0.06604,-0.51585 -0.184657,-0.6605 -0.413331,-0.50402 -0.231799,-1.01527 0.425101,-1.19722 0.178899,-0.0495 0.397347,-0.23871 0.485441,-0.42036 0.286381,-0.59052 0.825805,-0.5881 1.113437,0.005 0.08676,0.1789 0.304115,0.36581 0.483014,0.41536 0.6569,0.18195 0.838432,0.6932 0.425101,1.19722 -0.118615,0.14465 -0.200141,0.43625 -0.184657,0.6605 0.03697,0.5355 -0.378539,1.00895 -0.759356,0.86523 -0.150358,-0.0568 -0.385273,-0.10318 -0.522034,-0.10318 -0.136761,0 -0.371676,0.0464 -0.522034,0.10318 -0.197723,0.0746 -0.344459,0.0247 -0.530229,-0.18027 z m 1.394018,-1.35555 c 0.07966,-0.33619 -0.285728,-0.5957 -0.53892,-0.38276 -0.101678,0.0855 -0.164744,0.26353 -0.140146,0.39559 0.06116,0.32832 0.60064,0.31813 0.679066,-0.0128 z"
       id="path1" /></g></svg>
