<?xml version="1.0" encoding="UTF-8" standalone="no"?>
<!-- Created with Inkscape (http://www.inkscape.org/) -->

<svg
   width="31.819016mm"
   height="20.843531mm"
   viewBox="0 0 31.819016 20.843531"
   version="1.1"
   id="svg1"
   xml:space="preserve"
   inkscape:version="1.3.2 (091e20e, 2023-11-25, custom)"
   sodipodi:docname="icol.svg"
   xmlns:inkscape="http://www.inkscape.org/namespaces/inkscape"
   xmlns:sodipodi="http://sodipodi.sourceforge.net/DTD/sodipodi-0.dtd"
   xmlns="http://www.w3.org/2000/svg"
   xmlns:svg="http://www.w3.org/2000/svg"><sodipodi:namedview
     id="namedview1"
     pagecolor="#505050"
     bordercolor="#eeeeee"
     borderopacity="1"
     inkscape:showpageshadow="0"
     inkscape:pageopacity="0"
     inkscape:pagecheckerboard="0"
     inkscape:deskcolor="#505050"
     inkscape:document-units="mm"
     inkscape:zoom="2.043487"
     inkscape:cx="119.15906"
     inkscape:cy="8.5637931"
     inkscape:window-width="1920"
     inkscape:window-height="1046"
     inkscape:window-x="-11"
     inkscape:window-y="-11"
     inkscape:window-maximized="1"
     inkscape:current-layer="layer1" /><defs
     id="defs1" /><g
     inkscape:label="Layer 1"
     inkscape:groupmode="layer"
     id="layer1"
     transform="translate(-37.17676,-188.24397)"><path
       style="fill:#a3a3a3;fill-opacity:0.85336;stroke-width:0.981297"
       d="m 68.019436,208.81233 c 0.08524,-0.0379 0.23626,-0.24213 0.335504,-0.45393 0.24597,-0.52502 0.257168,-3.71656 0.01438,-4.10493 -0.09614,-0.15378 -0.192394,-0.78973 -0.228648,-1.51052 -0.06426,-1.27762 -0.19719,-1.64995 -0.589028,-1.64995 -0.350046,0 -0.417434,0.25875 -0.37696,1.44743 l 0.03776,1.11084 h -8.461292 c -7.245326,0 -8.679903,-0.0326 -9.982564,-0.22656 -0.836703,-0.12462 -1.795767,-0.23064 -2.131248,-0.23564 -0.59443,-0.009 -0.609972,9.5e-4 -0.609972,0.38365 0,0.31756 0.07006,0.41772 0.365978,0.52336 0.20129,0.0718 0.381699,0.14473 0.400911,0.16197 0.03975,0.0356 -0.195294,2.403 -0.283085,2.85181 -0.06741,0.34444 -0.102327,0.34186 -2.496708,-0.18531 -1.915476,-0.42172 -3.57084,-1.00091 -4.788271,-1.67535 -0.944864,-0.52345 -0.945463,-0.52411 -0.945463,-1.06755 0,-0.80241 0.635571,-2.01148 1.057363,-2.01148 0.0885,0 1.025885,0.27571 2.083129,0.61271 2.314151,0.73762 2.963598,0.85043 3.186847,0.55353 0.284536,-0.37841 0.05681,-0.71117 -0.626967,-0.91631 l -0.637613,-0.19127 0.548978,-0.35582 c 0.614153,-0.39807 1.796307,-0.86248 2.521004,-0.99038 0.470245,-0.0831 0.484434,-0.073 0.869428,0.61052 0.336503,0.59745 0.438424,0.68893 0.726865,0.65229 0.265658,-0.0338 0.343685,-0.12148 0.37485,-0.42158 0.02169,-0.20844 -0.04927,-0.52824 -0.157566,-0.7107 -0.248506,-0.41861 -0.178564,-0.53986 0.377842,-0.65507 0.407142,-0.0843 0.489574,-0.0442 0.961261,0.46664 0.406279,0.4401 0.590632,0.54944 0.867456,0.51456 0.517235,-0.0653 0.540333,-0.59936 0.04837,-1.11952 l -0.374927,-0.39645 0.517588,-0.29143 0.517579,-0.29144 0.561263,0.52233 c 0.62149,0.57839 1.018693,0.66102 1.216518,0.25304 0.166936,-0.34427 0.0077,-0.68712 -0.504313,-1.08999 l -0.382807,-0.30085 0.399616,-0.35996 0.399615,-0.35999 0.605174,0.4495 c 0.65809,0.48879 0.821436,0.53382 1.044243,0.28792 0.297313,-0.32816 0.163679,-0.7645 -0.348778,-1.1388 l -0.495157,-0.36167 0.357285,-0.39434 0.357285,-0.39433 0.529884,0.42365 c 0.688381,0.55038 1.132995,0.52295 1.185648,-0.0731 0.03219,-0.364 -0.03257,-0.46694 -0.508091,-0.80836 l -0.544935,-0.39122 0.34247,-0.42304 0.342468,-0.42302 0.5316,0.38925 c 0.292387,0.2141 0.616702,0.38953 0.720693,0.38984 0.249625,7.6e-4 0.481882,-0.26575 0.481882,-0.55296 0,-0.21598 -0.500829,-0.77141 -0.940391,-1.04291 -0.17406,-0.10751 -0.165121,-0.16797 0.08125,-0.54985 0.192793,-0.29885 0.337406,-0.40185 0.476476,-0.33936 1.143357,0.51366 1.229196,0.53187 1.435303,0.3044 0.341428,-0.37685 0.127481,-0.85868 -0.498435,-1.12251 l -0.544209,-0.22939 0.248633,-0.53791 c 0.24409,-0.52806 0.257946,-0.53622 0.75746,-0.44605 1.987371,0.35875 4.197091,0.62663 5.785082,0.70129 1.023226,0.0481 1.860414,0.11749 1.860414,0.15417 0,0.0367 -0.08896,0.5516 -0.197837,1.14428 -0.125617,0.68422 -0.175694,1.42641 -0.137175,2.03313 0.0645,1.01753 0.872344,4.33354 1.129897,4.63846 0.177145,0.20971 0.614131,0.10268 0.710329,-0.17401 0.0699,-0.20137 -0.139932,-1.18695 -0.598367,-2.80899 -0.374897,-1.32652 -0.384165,-2.51889 -0.03272,-4.20756 0.255766,-1.2289 0.25711,-1.27784 0.04208,-1.54006 -0.200282,-0.24426 -0.37407,-0.27084 -1.771192,-0.27084 -0.85202,0 -1.885882,-0.0388 -2.297478,-0.0863 -0.721361,-0.0832 -0.759256,-0.10683 -1.050191,-0.65477 -0.458713,-0.86391 -1.086592,-1.41323 -1.615348,-1.41323 -0.376586,0 -0.528274,0.10386 -1.028122,0.70395 -0.518207,0.62213 -0.635592,0.69927 -1.009793,0.66369 -0.59012,-0.0561 -0.875031,0.15204 -1.364881,0.99722 -0.269799,0.4655 -0.508716,0.732 -0.656275,0.732 -0.244276,0 -0.441905,0.43668 -0.306809,0.67795 0.125556,0.22424 -0.290837,0.81069 -0.682641,0.96144 -0.269143,0.10356 -0.356953,0.22206 -0.356953,0.48174 0,0.42812 -0.548379,1.245 -0.835771,1.245 -0.28807,0 -0.506168,0.26183 -0.506168,0.60765 0,0.38939 -0.591505,0.97769 -1.036953,1.03136 -0.286774,0.0346 -0.37372,0.11722 -0.401753,0.38208 -0.04142,0.39109 -0.691091,0.94112 -1.111646,0.94112 -0.167506,0 -0.301689,0.0985 -0.336944,0.24731 -0.0725,0.30616 -1.020214,0.82986 -1.501694,0.82986 -0.196157,0 -0.400557,0.0857 -0.454211,0.19028 -0.100898,0.19679 -1.358266,0.51265 -1.541951,0.38735 -0.05711,-0.039 -0.222082,-0.008 -0.366657,0.0697 -0.144574,0.0773 -0.756929,0.30275 -1.360798,0.50087 -0.953312,0.31279 -1.298842,0.3582 -2.622874,0.34461 -1.272489,-0.013 -1.636003,0.0308 -2.195902,0.26491 -0.36903,0.1543 -0.890554,0.32576 -1.15894,0.38102 -0.690365,0.14216 -0.992445,0.35393 -1.407966,0.98704 -0.608971,0.92783 -0.879505,2.28161 -0.594115,2.97295 0.428896,1.03893 4.053311,2.49557 7.938243,3.19033 3.51022,0.62776 4.430366,0.67224 13.704897,0.66254 4.830974,-0.005 8.853354,-0.0401 8.938642,-0.078 z M 49.80925,207.82594 c -0.670963,-0.0699 -1.483686,-0.16535 -1.80604,-0.21214 l -0.586099,-0.0851 0.0371,-0.49128 c 0.03023,-0.39939 0.08272,-0.48606 0.281113,-0.46331 1.552894,0.17798 7.151748,0.31501 11.955425,0.29257 l 5.977716,-0.0279 0.03748,0.56058 0.03749,0.56057 -7.35716,-0.004 c -4.046441,-0.002 -7.906136,-0.0606 -8.57711,-0.13052 z M 48.1255,205.5988 c -0.456713,-0.0921 -0.463238,-0.10209 -0.426971,-0.65029 0.02022,-0.30618 0.09429,-0.54565 0.16456,-0.53214 1.437149,0.27625 4.083622,0.3422 11.468078,0.28576 8.869489,-0.0678 8.350237,-0.1064 8.350237,0.62078 0,0.16674 -0.04088,0.34834 -0.091,0.40355 -0.112694,0.12435 -18.824172,0.002 -19.464943,-0.12766 z m -7.038838,-3.98169 c -0.147557,-0.0421 0.714032,-0.22446 1.128454,-0.2389 0.516802,-0.018 0.537614,0.0124 0.256896,0.3742 -0.186159,0.23997 -0.240942,0.24501 -0.762455,0.0704 -0.30904,-0.10353 -0.589336,-0.19606 -0.622895,-0.20562 z m 18.210781,0.80424 c 0.474256,-0.29293 0.06231,-1.1946 -0.447147,-0.97882 -0.215174,0.0911 -0.370207,0.52629 -0.258544,0.7257 0.14687,0.26229 0.491007,0.38572 0.705691,0.25312 z m -1.829905,0 c 0.296203,-0.18296 0.266894,-0.7469 -0.04847,-0.9332 -0.21328,-0.12597 -0.302181,-0.10508 -0.504932,0.1187 -0.135664,0.14974 -0.214192,0.36329 -0.175021,0.47596 0.10954,0.31505 0.484433,0.48926 0.728465,0.33854 z m 4.984841,-2.49336 c 0.176945,-0.034 0.615779,-0.2557 0.975174,-0.49274 1.091529,-0.7199 1.721204,-2.20698 1.512319,-3.57159 -0.260388,-1.70102 -2.303169,-3.51911 -2.480811,-2.20794 -0.02717,0.20045 0.113268,0.39191 0.506413,0.69045 0.727334,0.55232 1.106786,1.40457 1.028053,2.30903 -0.120583,1.38498 -1.190899,2.38251 -2.416838,2.25251 -2.141394,-0.2271 -2.802105,-3.2028 -1.012824,-4.56153 0.445685,-0.33844 0.537194,-0.47784 0.506413,-0.77153 -0.05447,-0.51997 -0.435655,-0.51807 -1.133605,0.006 -1.049955,0.7879 -1.612533,2.39451 -1.294339,3.69644 0.439759,1.79934 2.128021,2.97412 3.810045,2.65122 z m 0.344812,-2.06159 c 0.15952,-0.17608 0.242041,-0.42279 0.224821,-0.6722 -0.01521,-0.22006 0.06476,-0.50623 0.181193,-0.64818 0.405572,-0.49463 0.227448,-0.99636 -0.417121,-1.17492 -0.175541,-0.0486 -0.38989,-0.23425 -0.476327,-0.41252 -0.281005,-0.57952 -0.810309,-0.57714 -1.09254,0.005 -0.08516,0.17557 -0.298401,0.359 -0.473944,0.40762 -0.644569,0.17856 -0.822692,0.68029 -0.417121,1.17492 0.116386,0.14195 0.196383,0.42812 0.181185,0.64818 -0.0363,0.52553 0.371434,0.99016 0.745107,0.84911 0.147536,-0.0558 0.378038,-0.10126 0.512231,-0.10126 0.134193,0 0.364702,0.0455 0.51224,0.10126 0.194009,0.0732 0.337994,0.0242 0.520276,-0.17691 z m -1.367852,-1.33029 c -0.07821,-0.32992 0.280367,-0.5846 0.528804,-0.37562 0.09976,0.0839 0.161648,0.25861 0.13751,0.38821 -0.06005,0.3222 -0.589366,0.3122 -0.666314,-0.0125 z"
       id="path2" /></g></svg>
